<?xml version="1.0" ?><svg data-name="Layer 1" id="Layer_1" viewBox="0 0 128 128" xmlns="http://www.w3.org/2000/svg"><defs><style>.cls-1{fill:#dd5e58;}.cls-2{fill:#f6ecd9;}.cls-3{fill:#efd99c;}</style></defs><title/><path class="cls-1" d="M83.39909,43.859V32.96647a19.46648,19.46648,0,0,0-38.93295,0V43.859l8.99968.00035V32.9668a10.4668,10.4668,0,1,1,20.93359,0V43.85938Z"/><path class="cls-2" d="M95.44727,43.77344a1,1,0,0,0-.9961-.91406H33.41406a1,1,0,0,0-.99609.91406l-6,69.64062A1.00013,1.00013,0,0,0,27.41406,114.5h73.03711a1.00013,1.00013,0,0,0,.9961-1.08594Z"/><path class="cls-3" d="M91.1709,72.21387a.99975.99975,0,0,0-.80713-.68067l-17.644-2.56445-7.89014-15.9873a1.041,1.041,0,0,0-1.79395,0l-7.89013,15.9873-17.644,2.56445a.99972.99972,0,0,0-.55419,1.70508L49.71436,85.68359l-3.01368,17.57129a1.00012,1.00012,0,0,0,1.45118,1.05371L63.93262,96.0127l15.78076,8.29589a1.00012,1.00012,0,0,0,1.45117-1.05371L78.15088,85.68359,90.918,73.23828A.99922.99922,0,0,0,91.1709,72.21387ZM58.40918,83.34668a1.00039,1.00039,0,0,0-.28809-.88477L53.0625,77.53125l6.99121-1.0166a.99987.99987,0,0,0,.75293-.54688l3.126-6.334,3.126,6.334a.99987.99987,0,0,0,.75293.54688l6.99121,1.0166-5.05859,4.93066a1.00042,1.00042,0,0,0-.28809.88477l1.19434,6.96289L64.398,87.02246a.99718.99718,0,0,0-.93066,0l-6.25245,3.28711Z"/></svg>